PathFileType	4	(X/Y/Z)	C:\Users\WrightLab\Desktop\Jo\P1_boxCal32.trc
DataRate	CameraRate	NumFrames	NumMarkers	Units	OrigDataRate	OrigDataStartFrame	OrigNumFrames
100.00	100.00	       39	19	mm	100.00	93	       737
Frame#	Time	Headset_Front			Headset_Back			Headset_Left			Headset_Right			Left_Shoulder			Right_Shoulder			Sternum			C7			Left Elbow			Right Elbow			Left Wrist			Right Wrist			Left ASIS			Right ASIS			S2			Left Knee			Right Knee			Left Ankle			Right Ankle			
		X1	Y1	Z1	X2	Y2	Z2	X3	Y3	Z3	X4	Y4	Z4	X5	Y5	Z5	X6	Y6	Z6	X7	Y7	Z7	X8	Y8	Z8	X9	Y9	Z9	X10	Y10	Z10	X11	Y11	Z11	X12	Y12	Z12	X13	Y13	Z13	X14	Y14	Z14	X15	Y15	Z15	X16	Y16	Z16	X17	Y17	Z17	X18	Y18	Z18	X19	Y19	Z19	

93	0.920																																		-417.85519	778.97302	1504.85461													-563.89166	483.94162	1770.28271							
94	0.930																																		-419.37070	776.88251	1501.83105													-564.39221	483.05270	1769.42664							
95	0.940																																		-418.82706	775.64423	1497.59937													-565.65045	482.62952	1770.18286							
96	0.950																																		-418.78928	775.05066	1494.66919													-567.18311	482.95190	1767.00232							
97	0.960																																		-418.06918	774.39899	1491.38672													-567.61694	482.72562	1767.06653							
98	0.970																																		-418.60223	772.70172	1487.34082													-568.06415	482.73416	1766.87952							
99	0.980																																		-417.36960	773.13739	1484.71643													-568.72809	482.25272	1767.42297							
100	0.990																																		-417.10519	772.64783	1481.90198													-569.39813	482.22543	1766.76685							
101	1.000																																		-417.80231	772.13153	1479.08301													-571.03076	482.59109	1764.31934							
102	1.010																																		-416.88403	773.27478	1476.20520													-572.52100	482.85196	1762.58411							
103	1.020																																		-416.53516	773.10602	1473.30688										-908.98419	527.26917	1884.52820	-573.10498	482.67166	1762.55334							
104	1.030																																		-416.06107	773.03241	1470.98022										-911.15222	527.99823	1878.11902	-573.98956	482.20496	1760.73804							
105	1.040																																		-415.54855	772.57611	1469.05029										-913.28333	528.60059	1873.67944	-575.08667	481.78613	1759.17615							
106	1.050																																		-416.42709	771.91638	1466.13733										-915.31006	529.46918	1866.43250	-575.77856	480.97458	1758.14856							
107	1.060																																		-415.59393	771.88812	1463.87842										-917.96295	529.50354	1861.03284	-576.28369	480.59363	1758.15710							
108	1.070																																		-415.74066	771.43701	1461.76086										-920.34375	530.51727	1854.00049	-577.65393	480.48444	1756.35779							
109	1.080																																		-415.12723	772.00922	1459.15564										-923.11035	531.38049	1847.63232	-579.12646	480.57654	1754.18652							
110	1.090																																		-414.93216	772.28699	1457.61108										-926.18060	531.95044	1841.08801	-579.59003	479.80374	1753.00964							
111	1.100																																		-414.96191	772.69562	1455.46130										-928.23828	533.28076	1833.29504	-580.02356	479.55011	1752.64771							
112	1.110																																		-414.92923	773.05109	1454.34534										-931.45190	534.15204	1826.34460	-581.63232	478.90598	1748.77979							
113	1.120																																		-415.35410	773.65070	1452.16309										-934.17114	534.57654	1819.85254	-582.26819	478.37387	1748.76038							
114	1.130																																		-415.53455	773.87213	1451.42810										-936.72266	535.09784	1811.98633	-583.02307	477.49188	1747.49231							
115	1.140																																		-415.54697	773.99719	1450.26111										-940.00684	535.16595	1806.41541	-584.48944	477.46445	1745.55505							
116	1.150																																		-415.56534	773.88159	1449.30713										-942.90106	535.23340	1799.63379	-585.97113	477.30121	1743.68591							
117	1.160																																		-415.99106	774.20984	1448.88489										-945.69659	534.61414	1794.26990	-587.16278	476.21533	1743.37634							
118	1.170																																		-416.26321	774.32013	1447.76233										-948.45068	533.87457	1789.64050	-588.51233	475.75775	1741.53088							
119	1.180																																		-416.92587	774.56787	1445.89221										-950.87433	532.96564	1783.86499	-589.71790	475.49606	1739.57996							
120	1.190																																		-417.25647	775.00977	1445.11060										-953.38629	532.18768	1779.11316	-590.66840	475.00320	1738.83936							
121	1.200																																		-417.71494	775.91736	1444.29797										-955.63391	530.76849	1774.54065	-592.26642	474.81302	1737.05884							
122	1.210																																		-418.79968	776.39618	1443.91675										-957.88629	529.68378	1770.65759	-593.29370	474.16638	1735.08582							
123	1.220																																		-419.35059	776.78412	1443.42773										-960.11011	528.01837	1765.32642	-593.83490	473.77448	1735.10046							
124	1.230																																		-420.32913	776.81677	1442.29480										-962.44757	526.52899	1761.51941	-594.76660	473.12033	1733.11853							
125	1.240																																		-422.10071	777.59857	1440.96570										-964.63312	524.77911	1757.41760	-596.39545	473.62531	1730.31799							
126	1.250																																		-422.78979	778.05054	1440.27917										-967.32452	523.25671	1752.64905	-597.64252	473.29257	1729.85425							
127	1.260																																		-423.62064	778.60626	1439.90527										-969.70807	521.54688	1747.93799	-598.76581	472.98093	1728.80420							
128	1.270																																		-424.40277	779.09753	1439.53027										-972.03912	519.37921	1743.36267	-600.45197	472.58282	1726.27063							
129	1.280																																		-426.50815	778.30688	1439.35193										-974.68530	517.74194	1739.10559	-602.48444	472.59387	1724.49817							
130	1.290																																		-429.03827	778.19989	1438.55347										-977.19025	515.85516	1733.97827	-604.28906	471.80954	1721.88770							
131	1.300							-814.10095	1402.75635	1486.42603																									-430.86563	779.60699	1437.27832										-979.59967	513.62750	1729.59961	-605.37506	472.04288	1720.34985							
